<svg xmlns="http://www.w3.org/2000/svg" width="200.001" height="190.245" viewBox="0 0 200.001 190.245">
  <path fill="#FFF" d="M117.7,167.061c-14.514-19.977-9.168-43.415-7.311-58.2,15.379,2.566,38.577,4.96,53.092,24.937,10.976,15.107,14.513,32.3,10.122,43.766l-19.655-8.751,2.248,21.4c-.42.022-.842.033-1.27.033C142.9,190.244,128.3,181.65,117.7,167.061Zm-63.595,23.15,2.248-21.4L36.7,177.564C32.307,166.1,35.844,148.9,46.821,133.8c14.514-19.978,38.457-22.136,53.091-24.937,2.312,15.419,7.2,38.221-7.311,58.2-10.6,14.59-25.2,23.184-37.224,23.183C54.95,190.243,54.525,190.232,54.105,190.211Zm-15.04-80.283c-17.76-5.771-30.73-17.6-33.914-29.458L26.2,76,11.8,60.007c9.544-7.718,26.993-9.668,44.753-3.9C80.037,63.74,89.488,85.844,96.674,98.9c-10.735,5.359-25.155,13.523-41.936,13.522A50.369,50.369,0,0,1,39.065,109.928ZM113.629,98.9c7.192-13.833,16.637-35.157,40.123-42.787,17.76-5.771,35.208-3.821,44.752,3.9L184.108,76l21.045,4.474c-3.184,11.854-16.155,23.687-33.915,29.458a49.1,49.1,0,0,1-15.285,2.415C138.878,112.343,124.1,103.815,113.629,98.9ZM76.857,41.357C76.857,22.684,84.1,6.692,94.393,0l10.759,18.632L115.909,0c10.29,6.692,17.536,22.684,17.536,41.357,0,24.693-18.1,40.513-28.293,51.381C94.218,81.623,76.857,66.05,76.857,41.357Z" transform="translate(-5.152)"/>
</svg>